HIERARCHY
ROOT Hips
{
 OFFSET 0.000000 0.000000 0.000000
 CHANNELS 6 Xposition Yposition Zposition Yrotation Xrotation Zrotation
 JOINT Chest
 {
  OFFSET 0.000000 9.585900 0.002600
  CHANNELS 3 Yrotation Xrotation Zrotation
  JOINT Chest2
  {
   OFFSET 0.000000 9.601200 -0.005300
   CHANNELS 3 Yrotation Xrotation Zrotation
   JOINT Chest3
   {
    OFFSET 0.000000 9.561800 0.000000
    CHANNELS 3 Yrotation Xrotation Zrotation
    JOINT Chest4
    {
     OFFSET 0.000000 9.552100 0.000000
     CHANNELS 3 Yrotation Xrotation Zrotation
     JOINT Neck
     {
      OFFSET 0.000000 14.453000 0.000000
      CHANNELS 3 Yrotation Xrotation Zrotation
      JOINT Head
      {
       OFFSET 0.000000 8.936500 -0.011300
       CHANNELS 3 Yrotation Xrotation Zrotation
       End Site
       {
        OFFSET 0.000000 17.073600 -0.006000
       }
      }
     }
     JOINT RightCollar
     {
      OFFSET -2.921100 9.558500 0.000000
      CHANNELS 3 Yrotation Xrotation Zrotation
      JOINT RightShoulder
      {
       OFFSET -13.519700 0.000000 0.000000
       CHANNELS 3 Yrotation Xrotation Zrotation
       JOINT RightElbow
       {
        OFFSET 0.000000 -29.696600 0.000000
        CHANNELS 3 Yrotation Xrotation Zrotation
        JOINT RightWrist
        {
         OFFSET 0.000000 -24.004700 0.000000
         CHANNELS 3 Yrotation Xrotation Zrotation
         End Site
         {
          OFFSET 0.000000 -17.728500 0.000000
         }
        }
       }
      }
     }
     JOINT LeftCollar
     {
      OFFSET 2.921100 9.558500 0.000000
      CHANNELS 3 Yrotation Xrotation Zrotation
      JOINT LeftShoulder
      {
       OFFSET 13.519700 0.000000 0.000000
       CHANNELS 3 Yrotation Xrotation Zrotation
       JOINT LeftElbow
       {
        OFFSET 0.000000 -29.696600 0.000000
        CHANNELS 3 Yrotation Xrotation Zrotation
        JOINT LeftWrist
        {
         OFFSET 0.000000 -24.004700 0.000000
         CHANNELS 3 Yrotation Xrotation Zrotation
         End Site
         {
          OFFSET 0.000000 -17.728500 0.000000
         }
        }
       }
      }
     }
    }
   }
  }
 }
 JOINT RightHip
 {
  OFFSET -7.771700 -0.012900 -0.001300
  CHANNELS 3 Yrotation Xrotation Zrotation
  JOINT RightKnee
  {
   OFFSET 0.000000 -40.869800 0.001200
   CHANNELS 3 Yrotation Xrotation Zrotation
   JOINT RightAnkle
   {
    OFFSET 0.000000 -39.717900 0.002100
    CHANNELS 3 Yrotation Xrotation Zrotation
    JOINT RightToe
    {
     OFFSET 0.000000 -4.965400 11.033500
     CHANNELS 3 Yrotation Xrotation Zrotation
     End Site
     {
      OFFSET 0.000000 -1.423100 5.872300
     }
    }
   }
  }
 }
 JOINT LeftHip
 {
  OFFSET 7.771700 -0.012900 -0.001300
  CHANNELS 3 Yrotation Xrotation Zrotation
  JOINT LeftKnee
  {
   OFFSET 0.000000 -40.869800 0.001200
   CHANNELS 3 Yrotation Xrotation Zrotation
   JOINT LeftAnkle
   {
    OFFSET 0.000000 -39.717900 0.002100
    CHANNELS 3 Yrotation Xrotation Zrotation
    JOINT LeftToe
    {
     OFFSET 0.000000 -4.965400 11.033500
     CHANNELS 3 Yrotation Xrotation Zrotation
     End Site
     {
      OFFSET 0.000000 -1.423100 5.872300
     }
    }
   }
  }
 }
}
MOTION
Frames: 5
Frame Time: 0.008333
0.000000 85.388000 0.000000 0.000000 -5.767877 0.000000 0.000000 11.653817 0.000000 0.000000 -5.885947 0.000000 0.000000 -0.000000 0.000000 0.000000 -0.000000 0.000000 0.000000 12.528835 0.000000 0.000000 0.711642 0.000000 0.000000 -0.000000 0.000000 0.000000 0.000000 -90.000000 0.000000 -2.309062 0.000000 0.000000 2.309062 0.000000 0.000000 -0.000000 0.000000 0.000000 -0.000000 90.000000 0.000000 -2.309062 0.000000 0.000000 2.309062 0.000000 0.000000 8.520406 0.000000 0.000000 1.905762 0.000000 -0.000000 -4.658285 0.000000 0.000000 -0.000000 0.000000 0.000000 8.520406 0.000000 0.000000 1.905762 0.000000 -0.000000 -4.658285 0.000000 0.000000 -0.000000 0.000000
-51.637552 58.921402 14.022491 161.661607 3.056519 -1.559485 0.348073 5.889670 2.696216 -0.012595 0.133350 0.079911 -0.019168 0.381317 0.126562 -0.197261 5.615424 1.855352 3.782105 16.304210 -2.316679 7.832064 -5.259591 -5.625584 4.261250 -1.092489 -6.590319 23.986167 -10.146051 -21.028050 40.727664 -35.660924 -17.771314 -2.221554 -3.569626 -57.170249 -7.916547 -4.222586 4.180924 -21.374645 -13.490785 13.424493 -51.522952 -28.312596 26.589445 -2.957177 -15.406266 39.312066 -28.885762 -70.710693 23.079617 -35.438485 70.941388 -37.217925 -4.205920 -8.731377 -1.006691 -0.536913 1.082328 -0.306937 -2.144960 -76.396688 19.705859 35.093871 67.512821 26.658828 -17.995417 -10.810496 6.734206 -0.059395 -1.087135 -0.043102
-51.635989 58.917481 14.024932 161.656084 2.981134 -1.552271 0.345556 5.819656 2.701774 -0.011235 0.195065 0.074030 -0.019500 0.381629 0.126299 -0.199495 5.658792 1.849495 3.776615 16.292761 -2.311977 7.824750 -5.206024 -5.614204 4.264565 -1.066859 -6.563511 23.983004 -10.145368 -21.039870 40.689087 -35.668458 -17.828283 -2.191515 -3.553644 -57.074974 -7.878453 -4.206134 4.149033 -21.304516 -13.614568 13.394155 -51.466318 -28.220790 26.529325 -3.001399 -15.362286 39.200666 -28.789794 -70.655242 22.976382 -35.439502 70.952510 -37.220599 -4.198713 -8.735108 -1.005591 -0.539634 1.062825 -0.299514 -2.149101 -76.325052 19.719269 35.112344 67.517072 26.664457 -17.986906 -10.792802 6.736297 -0.054472 -1.100079 -0.041241
-51.635286 58.913056 14.032996 161.664586 2.924877 -1.547961 0.332879 5.771068 2.707442 -0.011357 0.216475 0.071537 -0.019767 0.381877 0.126161 -0.205268 5.640864 1.847186 3.773646 16.341240 -2.306893 7.826722 -5.152642 -5.609208 4.269155 -0.979895 -6.536431 23.939411 -10.293762 -21.004157 40.701405 -35.552584 -17.820271 -2.155100 -3.543761 -56.976705 -7.862950 -4.114262 4.121661 -21.245074 -13.712348 13.369779 -51.445335 -28.144116 26.516770 -3.051079 -15.327361 39.095694 -28.745013 -70.613782 22.911787 -35.433377 70.962799 -37.216216 -4.185332 -8.743934 -1.003848 -0.550746 1.050604 -0.294903 -2.199177 -76.273357 19.762032 35.152376 67.508092 26.685906 -17.986911 -10.757241 6.740281 -0.076045 -1.116052 -0.043342
-51.636991 58.907904 14.041546 161.668050 2.864262 -1.530458 0.324382 5.748931 2.698812 -0.010486 0.257843 0.066323 -0.020922 0.340659 0.131257 -0.210109 5.621677 1.846304 3.770887 16.389791 -2.303899 7.815178 -5.101297 -5.596336 4.264210 -0.936059 -6.446916 23.943149 -10.279798 -21.040840 40.672203 -35.513938 -17.849292 -2.142330 -3.536440 -56.887950 -7.820034 -4.045513 4.077724 -21.230833 -13.803629 13.356913 -51.452244 -28.049329 26.494676 -3.102255 -15.297571 38.999888 -28.662818 -70.574703 22.810105 -35.441749 70.967437 -37.222685 -4.175703 -8.763055 -0.997913 -0.546435 1.055481 -0.300834 -2.166290 -76.217579 19.725614 35.173652 67.498562 26.694854 -17.993774 -10.714935 6.735811 -0.070129 -1.136256 -0.038337
